<?xml version="1.0" encoding="utf-8"?>
<!-- Generator: Adobe Illustrator 16.0.0, SVG Export Plug-In . SVG Version: 6.00 Build 0)  -->
<!DOCTYPE svg PUBLIC "-//W3C//DTD SVG 1.1//EN" "http://www.w3.org/Graphics/SVG/1.1/DTD/svg11.dtd">
<svg version="1.1" id="Layer_1" xmlns="http://www.w3.org/2000/svg" xmlns:xlink="http://www.w3.org/1999/xlink" x="0px" y="0px"
	 width="24px" height="24px" viewBox="0 0 24 24" enable-background="new 0 0 24 24" xml:space="preserve">
<g id="icomoon-ignore">
</g>
<path opacity="0.9" fill="#FFFFFF" d="M14.436,12.973c0.271,0,0.491,0.133,0.688,0.396c0.189,0.265,0.294,0.588,0.294,0.975
	c0,0.385-0.104,0.711-0.294,0.973c-0.191,0.268-0.417,0.396-0.688,0.396c-0.276,0-0.521-0.131-0.716-0.396
	c-0.192-0.262-0.294-0.588-0.294-0.973c0-0.387,0.102-0.71,0.294-0.975C13.912,13.105,14.156,12.973,14.436,12.973z M17.875,9.414
	C18.621,10.225,19,11.209,19,12.367c0,0.748-0.086,1.423-0.259,2.023c-0.175,0.596-0.394,1.084-0.654,1.459
	c-0.264,0.375-0.588,0.705-0.974,0.986c-0.387,0.286-0.741,0.492-1.065,0.623c-0.325,0.132-0.694,0.23-1.11,0.309
	c-0.418,0.068-0.727,0.108-0.941,0.123c-0.213,0.008-0.438,0.014-0.688,0.014c-0.055,0-0.242,0.004-0.547,0.015
	c-0.301,0.013-0.56,0.017-0.762,0.017s-0.461-0.004-0.762-0.017c-0.304-0.011-0.492-0.015-0.547-0.015
	c-0.246,0-0.472-0.006-0.685-0.014c-0.218-0.015-0.526-0.055-0.943-0.123c-0.423-0.072-0.786-0.177-1.111-0.309
	c-0.324-0.131-0.68-0.337-1.064-0.623c-0.387-0.281-0.711-0.611-0.975-0.986c-0.261-0.375-0.479-0.863-0.654-1.459
	C5.086,13.79,5,13.115,5,12.367c0-1.158,0.379-2.143,1.125-2.953C6.043,9.373,6.04,8.967,6.117,8.197
	C6.18,7.426,6.344,6.715,6.612,6.065c0.934,0.099,2.09,0.629,3.471,1.581C10.549,7.527,11.184,7.463,12,7.463
	c0.852,0,1.491,0.064,1.918,0.184c0.629-0.425,1.23-0.771,1.805-1.034c0.584-0.261,1.006-0.416,1.271-0.457l0.396-0.09
	c0.271,0.649,0.435,1.36,0.494,2.132C17.96,8.967,17.957,9.373,17.875,9.414z M12.03,17.234c1.688,0,2.954-0.202,3.821-0.607
	c0.854-0.404,1.291-1.238,1.291-2.496c0-0.73-0.272-1.34-0.822-1.828c-0.277-0.263-0.612-0.425-0.988-0.486s-0.949-0.061-1.721,0
	c-0.771,0.062-1.297,0.09-1.581,0.09c-0.385,0-0.8-0.018-1.319-0.059c-0.52-0.04-0.928-0.065-1.223-0.078
	c-0.294-0.009-0.609,0.027-0.958,0.108c-0.345,0.082-0.629,0.224-0.854,0.425c-0.521,0.469-0.79,1.077-0.79,1.828
	c0,1.258,0.426,2.092,1.28,2.496c0.85,0.405,2.113,0.607,3.802,0.607H12.03z M9.596,12.973c0.268,0,0.492,0.133,0.685,0.396
	c0.192,0.265,0.294,0.588,0.294,0.975c0,0.385-0.102,0.711-0.294,0.973c-0.192,0.268-0.417,0.396-0.685,0.396
	c-0.279,0-0.522-0.131-0.716-0.396c-0.192-0.262-0.294-0.588-0.294-0.973c0-0.387,0.102-0.71,0.294-0.975
	C9.073,13.105,9.316,12.973,9.596,12.973z"/>
</svg>
