<?xml version="1.0" encoding="utf-8"?>
<!-- Generator: Adobe Illustrator 16.0.0, SVG Export Plug-In . SVG Version: 6.00 Build 0)  -->
<!DOCTYPE svg PUBLIC "-//W3C//DTD SVG 1.1//EN" "http://www.w3.org/Graphics/SVG/1.1/DTD/svg11.dtd">
<svg version="1.1" id="Layer_1" xmlns="http://www.w3.org/2000/svg" xmlns:xlink="http://www.w3.org/1999/xlink" x="0px" y="0px"
	 width="24px" height="24px" viewBox="0 0 24 24" enable-background="new 0 0 24 24" xml:space="preserve">
<g id="icomoon-ignore">
</g>
<path opacity="0.9" fill="#FFFFFF" d="M8,19H5V9h3V19z M19,19h-3v-5.342c0-1.392-0.496-2.085-1.479-2.085
	c-0.779,0-1.273,0.388-1.521,1.165C13,14,13,19,13,19h-3c0,0,0.04-9,0-10h2.368l0.183,2h0.062c0.615-1,1.598-1.678,2.945-1.678
	c1.023,0,1.854,0.285,2.485,1.001C18.684,11.04,19,12.002,19,13.354V19z"/>
<path opacity="0.9" fill="#FFFFFF" d="M8.05,6.5C8.05,7.328,7.356,8,6.5,8S4.95,7.328,4.95,6.5S5.644,5,6.5,5S8.05,5.672,8.05,6.5z"
	/>
</svg>
